{
  "accessors": [
    {
      "bufferView": 2,
      "componentType": 5126,
      "count": 680,
      "max": [
        70.0,
        60.000003814697266,
        30.000001907348633
      ],
      "min": [
        -70.0,
        10.0,
        -30.000001907348633
      ],
      "type": "VEC3"
    },
    {
      "bufferView": 2,
      "byteOffset": 8160,
      "componentType": 5126,
      "count": 680,
      "max": [
        1.0,
        1.0,
        1.0
      ],
      "min": [
        -1.0,
        -1.0,
        -1.0
      ],
      "type": "VEC3"
    },
    {
      "bufferView": 1,
      "componentType": 5126,
      "count": 680,
      "max": [
        1.012298583984375,
        1.1402051448822021
      ],
      "min": [
        0.012298554182052612,
        0.191056489944458
      ],
      "type": "VEC2"
    },
    {
      "bufferView": 0,
      "componentType": 5125,
      "count": 1380,
      "type": "SCALAR"
    },
    {
      "bufferView": 2,
      "byteOffset": 16320,
      "componentType": 5126,
      "count": 679,
      "max": [
        70.0,
        59.92765426635742,
        31.343984603881836
      ],
      "min": [
        -69.92765045166016,
        10.0,
        -29.927656173706055
      ],
      "type": "VEC3"
    },
    {
      "bufferView": 2,
      "byteOffset": 24468,
      "componentType": 5126,
      "count": 679,
      "max": [
        1.0,
        1.0,
        1.0
      ],
      "min": [
        -1.0,
        -1.0,
        -1.0
      ],
      "type": "VEC3"
    },
    {
      "bufferView": 1,
      "byteOffset": 5440,
      "componentType": 5126,
      "count": 679,
      "max": [
        1.012298583984375,
        0.8793997764587402
      ],
      "min": [
        0.012815326452255249,
        0.28083735704421997
      ],
      "type": "VEC2"
    },
    {
      "bufferView": 0,
      "byteOffset": 5520,
      "componentType": 5125,
      "count": 1173,
      "type": "SCALAR"
    },
    {
      "bufferView": 2,
      "byteOffset": 32616,
      "componentType": 5126,
      "count": 30,
      "max": [
        68.00000762939453,
        35.000003814697266,
        27.000001907348633
      ],
      "min": [
        41.0,
        33.999996185302734,
        -28.700002670288086
      ],
      "type": "VEC3"
    },
    {
      "bufferView": 2,
      "byteOffset": 32976,
      "componentType": 5126,
      "count": 30,
      "max": [
        1.0,
        8.353825933227199e-07,
        1.0
      ],
      "min": [
        -1.0,
        0.0,
        -1.0
      ],
      "type": "VEC3"
    },
    {
      "bufferView": 1,
      "byteOffset": 10872,
      "componentType": 5126,
      "count": 30,
      "max": [
        0.625,
        1.0
      ],
      "min": [
        0.375,
        0.0
      ],
      "type": "VEC2"
    },
    {
      "bufferView": 0,
      "byteOffset": 10212,
      "componentType": 5125,
      "count": 72,
      "type": "SCALAR"
    },
    {
      "bufferView": 2,
      "byteOffset": 33336,
      "componentType": 5126,
      "count": 24,
      "max": [
        68.00000762939453,
        35.000003814697266,
        27.000001907348633
      ],
      "min": [
        41.0,
        33.999996185302734,
        -28.700002670288086
      ],
      "type": "VEC3"
    },
    {
      "bufferView": 2,
      "byteOffset": 33624,
      "componentType": 5126,
      "count": 24,
      "max": [
        3.318947250363635e-08,
        1.0,
        0.0
      ],
      "min": [
        -4.06571096789321e-08,
        -1.0,
        0.0
      ],
      "type": "VEC3"
    },
    {
      "bufferView": 1,
      "byteOffset": 11112,
      "componentType": 5126,
      "count": 24,
      "max": [
        0.875,
        0.75
      ],
      "min": [
        0.125,
        0.5
      ],
      "type": "VEC2"
    },
    {
      "bufferView": 0,
      "byteOffset": 10500,
      "componentType": 5125,
      "count": 60,
      "type": "SCALAR"
    },
    {
      "bufferView": 2,
      "byteOffset": 33912,
      "componentType": 5126,
      "count": 56,
      "max": [
        62.29999542236328,
        10.0,
        19.299999237060547
      ],
      "min": [
        -62.29999542236328,
        -7.450580596923828e-07,
        -19.299999237060547
      ],
      "type": "VEC3"
    },
    {
      "bufferView": 2,
      "byteOffset": 34584,
      "componentType": 5126,
      "count": 56,
      "max": [
        0.6655997037887573,
        0.6445791721343994,
        0.6655998229980469
      ],
      "min": [
        -0.6655997037887573,
        -0.7113022208213806,
        -0.6655998229980469
      ],
      "type": "VEC3"
    },
    {
      "bufferView": 1,
      "byteOffset": 11304,
      "componentType": 5126,
      "count": 56,
      "max": [
        0.875,
        1.0
      ],
      "min": [
        0.125,
        0.0
      ],
      "type": "VEC2"
    },
    {
      "bufferView": 0,
      "byteOffset": 10740,
      "componentType": 5125,
      "count": 144,
      "type": "SCALAR"
    }
  ],
  "asset": {
    "extras": {
      "author": "d-luX (https://sketchfab.com/dluX80)",
      "license": "CC-BY-4.0 (http://creativecommons.org/licenses/by/4.0/)",
      "source": "https://sketchfab.com/3d-models/dlx-cupboard-wood-877c674b792f461bad74888e55dbec1e",
      "title": "dlX - Cupboard (wood)"
    },
    "generator": "Sketchfab-14.85.0",
    "version": "2.0"
  },
  "bufferViews": [
    {
      "buffer": 0,
      "byteLength": 11316,
      "name": "floatBufferViews",
      "target": 34963
    },
    {
      "buffer": 0,
      "byteLength": 11752,
      "byteOffset": 11316,
      "byteStride": 8,
      "name": "floatBufferViews",
      "target": 34962
    },
    {
      "buffer": 0,
      "byteLength": 35256,
      "byteOffset": 23068,
      "byteStride": 12,
      "name": "floatBufferViews",
      "target": 34962
    }
  ],
  "buffers": [
    {
      "byteLength": 58324,
      "uri": "scene.bin"
    }
  ],
  "images": [
    {
      "uri": "textures/wood_baseColor.png"
    }
  ],
  "materials": [
    {
      "doubleSided": true,
      "name": "wood",
      "pbrMetallicRoughness": {
        "baseColorTexture": {
          "index": 0
        },
        "metallicFactor": 0.0,
        "roughnessFactor": 0.8211145618000169
      }
    },
    {
      "doubleSided": true,
      "name": "chrome",
      "pbrMetallicRoughness": {
        "baseColorFactor": [
          0.3986297863003011,
          0.3986297863003011,
          0.3986297863003011,
          1.0
        ],
        "roughnessFactor": 0.10819080591483707
      }
    }
  ],
  "meshes": [
    {
      "name": "Schrank_wood_0",
      "primitives": [
        {
          "attributes": {
            "NORMAL": 1,
            "POSITION": 0,
            "TEXCOORD_0": 2
          },
          "indices": 3,
          "material": 0,
          "mode": 4
        }
      ]
    },
    {
      "name": "Schrank_chrome_0",
      "primitives": [
        {
          "attributes": {
            "NORMAL": 5,
            "POSITION": 4,
            "TEXCOORD_0": 6
          },
          "indices": 7,
          "material": 1,
          "mode": 4
        }
      ]
    },
    {
      "name": "Brett_chrome_0",
      "primitives": [
        {
          "attributes": {
            "NORMAL": 9,
            "POSITION": 8,
            "TEXCOORD_0": 10
          },
          "indices": 11,
          "material": 1,
          "mode": 4
        }
      ]
    },
    {
      "name": "Brett_wood_0",
      "primitives": [
        {
          "attributes": {
            "NORMAL": 13,
            "POSITION": 12,
            "TEXCOORD_0": 14
          },
          "indices": 15,
          "material": 0,
          "mode": 4
        }
      ]
    },
    {
      "name": "Fuesse_chrome_0",
      "primitives": [
        {
          "attributes": {
            "NORMAL": 17,
            "POSITION": 16,
            "TEXCOORD_0": 18
          },
          "indices": 19,
          "material": 1,
          "mode": 4
        }
      ]
    }
  ],
  "nodes": [
    {
      "children": [
        1
      ],
      "matrix": [
        1.0,
        0.0,
        0.0,
        0.0,
        0.0,
        2.220446049250313e-16,
        -1.0,
        0.0,
        0.0,
        1.0,
        2.220446049250313e-16,
        0.0,
        0.0,
        0.0,
        0.0,
        1.0
      ],
      "name": "Sketchfab_model"
    },
    {
      "children": [
        2
      ],
      "matrix": [
        0.009999999776482582,
        0.0,
        0.0,
        0.0,
        0.0,
        0.0,
        0.009999999776482582,
        0.0,
        0.0,
        -0.009999999776482582,
        0.0,
        0.0,
        0.0,
        0.0,
        0.0,
        1.0
      ],
      "name": "dlX - Cupboard (wood).fbx"
    },
    {
      "children": [
        3,
        6,
        9
      ],
      "name": "RootNode"
    },
    {
      "children": [
        4,
        5
      ],
      "name": "Schrank"
    },
    {
      "mesh": 0,
      "name": "Schrank_wood_0"
    },
    {
      "mesh": 1,
      "name": "Schrank_chrome_0"
    },
    {
      "children": [
        7,
        8
      ],
      "name": "Brett"
    },
    {
      "mesh": 2,
      "name": "Brett_chrome_0"
    },
    {
      "mesh": 3,
      "name": "Brett_wood_0"
    },
    {
      "children": [
        10
      ],
      "name": "Fuesse"
    },
    {
      "mesh": 4,
      "name": "Fuesse_chrome_0"
    }
  ],
  "samplers": [
    {
      "magFilter": 9729,
      "minFilter": 9987,
      "wrapS": 10497,
      "wrapT": 10497
    }
  ],
  "scene": 0,
  "scenes": [
    {
      "name": "Sketchfab_Scene",
      "nodes": [
        0
      ]
    }
  ],
  "textures": [
    {
      "sampler": 0,
      "source": 0
    }
  ]
}
